<?xml version="1.0" encoding="UTF-8" standalone="no"?>
<!-- Generator: Adobe Illustrator 19.0.0, SVG Export Plug-In . SVG Version: 6.00 Build 0)  -->

<svg
   xmlns:dc="http://purl.org/dc/elements/1.1/"
   xmlns:cc="http://creativecommons.org/ns#"
   xmlns:rdf="http://www.w3.org/1999/02/22-rdf-syntax-ns#"
   xmlns:svg="http://www.w3.org/2000/svg"
   xmlns="http://www.w3.org/2000/svg"
   xmlns:sodipodi="http://sodipodi.sourceforge.net/DTD/sodipodi-0.dtd"
   xmlns:inkscape="http://www.inkscape.org/namespaces/inkscape"
   version="1.1"
   id="Layer_1"
   x="0px"
   y="0px"
   viewBox="0 0 359.62061 96.557617"
   xml:space="preserve"
   sodipodi:docname="oxwel_logo.svg"
   inkscape:version="0.92.1 r15371"
   width="359.62061"
   height="96.557617"><metadata
     id="metadata33"><rdf:RDF><cc:Work
         rdf:about=""><dc:format>image/svg+xml</dc:format><dc:type
           rdf:resource="http://purl.org/dc/dcmitype/StillImage" /><dc:title></dc:title></cc:Work></rdf:RDF></metadata><defs
     id="defs31" /><sodipodi:namedview
     pagecolor="#ffffff"
     bordercolor="#666666"
     borderopacity="1"
     objecttolerance="10"
     gridtolerance="10"
     guidetolerance="10"
     inkscape:pageopacity="0"
     inkscape:pageshadow="2"
     inkscape:window-width="1920"
     inkscape:window-height="1001"
     id="namedview29"
     showgrid="false"
     inkscape:zoom="0.89006225"
     inkscape:cx="170.62383"
     inkscape:cy="42.461914"
     inkscape:window-x="-9"
     inkscape:window-y="-9"
     inkscape:window-maximized="1"
     inkscape:current-layer="Layer_1" /><style
     type="text/css"
     id="style2">
	.st0{fill:url(#SVGID_1_);}
	.st1{fill:url(#SVGID_2_);}
	.st2{fill:#FBFE00;}
	.st3{font-family:'VanillaExtractRegular';}
	.st4{font-size:125px;}
</style><g
     id="g24"
     transform="translate(-67,-53.904297)"><linearGradient
       id="SVGID_1_"
       gradientUnits="userSpaceOnUse"
       x1="104.1618"
       y1="134.7308"
       x2="112.7611"
       y2="74.8339"><stop
         offset="0"
         style="stop-color:#FCFF00"
         id="stop6" /><stop
         offset="0.5"
         style="stop-color:#E9E400"
         id="stop8" /><stop
         offset="1"
         style="stop-color:#FFCA00"
         id="stop10" /></linearGradient><path
       class="st0"
       d="m 116.8,139.8 c -5.5,0 -10.6,-1.4 -15.2,-3.8 C 93,131.4 86.7,123 85,113.1 c -0.4,-1.6 -0.6,-3.3 -0.6,-5.1 0,-0.9 0.1,-1.7 0.1,-2.6 1.3,-11.8 11.3,-21 23.4,-21 13,0 23.6,10.6 23.6,23.6 0,2.4 -0.4,4.7 -1,6.9 1.3,-3.5 2,-7.3 2,-11.3 0,-12.2 -6.7,-22.8 -16.7,-28.4 -4.7,-2.6 -10,-4.1 -15.8,-4.1 -7.4,0 -14.2,2.5 -19.7,6.7 -6.4,5.8 -10.9,13.7 -12.6,22.6 -0.5,2.5 -0.7,5 -0.7,7.6 0,22.6 18.3,40.9 40.9,40.9 20.7,0 37.8,-15.4 40.5,-35.3 -2.7,14.9 -15.9,26.2 -31.6,26.2 z"
       id="path13"
       inkscape:connector-curvature="0"
       style="fill:url(#SVGID_1_)" /><linearGradient
       id="SVGID_2_"
       gradientUnits="userSpaceOnUse"
       x1="114.2412"
       y1="81.174202"
       x2="117.2064"
       y2="161.5303"><stop
         offset="0"
         style="stop-color:#FCFF00"
         id="stop15" /><stop
         offset="0.5"
         style="stop-color:#E9E400"
         id="stop17" /><stop
         offset="1"
         style="stop-color:#FFCA00"
         id="stop19" /></linearGradient><path
       class="st1"
       d="M 147.6,98 C 143.1,80.3 127.1,67.1 108,67.1 c -10.6,0 -20.3,4.1 -27.6,10.7 5.5,-4.2 12.3,-6.7 19.7,-6.7 5.7,0 11.1,1.5 15.8,4.1 10,5.5 16.7,16.2 16.7,28.4 0,4 -0.7,7.8 -2,11.3 -1,3.2 -2.6,6.1 -4.8,8.6 -4.3,5 -10.7,8.1 -17.8,8.1 -11.3,0 -20.7,-7.9 -23,-18.5 1.7,9.9 8,18.3 16.6,22.9 4.5,2.4 9.7,3.8 15.2,3.8 15.8,0 28.9,-11.3 31.7,-26.3 0.2,-1.8 0.4,-3.7 0.4,-5.5 0,-3.5 -0.5,-6.8 -1.3,-10 z"
       id="path22"
       inkscape:connector-curvature="0"
       style="fill:url(#SVGID_2_)" /></g><text
     class="st2 st3 st4"
     id="text26"
     style="font-size:125px;font-family:VanillaExtractRegular;fill:#fbfe00"
     x="86"
     y="94.970703">xwel</text>
</svg>