<svg xmlns="http://www.w3.org/2000/svg">
<defs>
<clipPath id="a"><path d="M0 595.28h841.89V0H0z"/></clipPath>
</defs>
<symbol id="fu" viewBox="0 0 199.39999 116.7"><g transform="translate(-153.4 -53.1)" id="g26" fill="#fff"><path id="path4" d="M349.4 147.6H156.7c-1.8 0-3.3-1.5-3.3-3.3V56.4c0-1.8 1.5-3.3 3.3-3.3h192.8c1.8 0 3.3 1.5 3.3 3.3v87.9c-.1 1.9-1.5 3.3-3.4 3.3zM156.7 54.1c-1.3 0-2.3 1-2.3 2.3v87.9c0 1.3 1 2.3 2.3 2.3h192.8c1.3 0 2.3-1 2.3-2.3V56.4c0-1.3-1-2.3-2.3-2.3z" class="st0"/><g id="g24"><path id="path6" d="M281.5 102c-.1.2-.3.4-.4.6h8.9c-.2-.1-.3-.3-.4-.6-.2-.5-.3-1.7-.3-3.5V95c-3 2.1-5.9 4.5-7.8 7z"/><path id="path8" d="M240.2 81.3l3.4 23.2c2.7-.3 5.4-.5 8.1-.8l3.1-23.1v22.9c2.5-.2 5-.3 7.6-.5.1-.5.2-1 .2-1.5 0-.7-.1-1.4-.2-2.1-.8-3.6-4-9.1-5-11.6-.9-2.4 1.7-2.7 2.5-1.7.8 1.1 3 3.8 3 3.8l1.5 2V67h-14.2l-2.5 19.6-1.6-10.6c-.5-3.4-.9-6.4-1.3-8.9h-14.1v39.1c3.2-.5 6.3-.9 9.5-1.2z"/><path id="path10" d="M289 90.5s.1-.1.2-.1V67h-10.9v29.5c3.2-1.4 7-3.7 10.7-6z"/><path id="path12" d="M316.9 101.4h3.9l.2 2.9c3.6.4 7.3.7 11 1.2L326.3 67h-15.8l-4.8 36.1c3.6.2 7.3.5 10.9.8zm1.9-25l1.4 17.6h-2.8z"/><path id="path14" d="M295.8 89.8c-.8.7-2.4 2-3.5 2.8v5.3c0 2.1-.1 3.4-.3 4-.1.3-.3.5-.6.7 3.7.1 7.4.2 11.1.4.1-.4.3-.8.3-1.2.2-1.3.3-3.5.3-6.7V67h-10.9v21.4c.6-.3 1.2-.7 1.8-1.1 2.7-1.5 3.7 1.2 1.8 2.5z"/><path id="path16" d="M185 101.4h6.7v-8H185v-18h7.6V67h-18.5v52.4c3.6-1.2 7.3-2.3 10.9-3.4z"/><path id="path18" d="M206.1 67h-10.9v46.2c3.6-.9 7.3-1.8 11-2.6z"/><path id="path20" d="M228 106.6v-6h-6.6V67h-10.9l.2 42.6c5.7-1.1 11.5-2.1 17.3-3z"/><path id="path22" d="M352.2 109.9c-25.1-4.3-49.7-6.3-73.6-6 .4-1 1-1.9 1.8-2.9 3.7-4.7 10.5-8.9 14.6-12.3-8.5 5-17.6 11.4-22.6 10.8-3.4-.4-5.9-2.6-8.5-5.8-1.6-1.9-3.1-4.2-5.1-6.6 1.8 3.4 4.2 7.9 5.1 11.9.4 1.9.3 3.6-.2 5.3-38.9 2-75.8 10.1-109.8 24v.2c36.4-11.6 72.3-18.2 107.2-19.6-3.7 4.4-9.3 8.2-13.1 11.6 5.2-3.4 11.4-7 16.2-8.6 4.4-1.5 6.7-.6 10.1 2.4 6.6 5.9 12.5 16.7 18.7 24-5.3-9.9-12.5-19.7-14.5-27.2-.2-.9-.4-1.7-.5-2.5 25.5.2 50.4 3.4 74.4 9.5v-8.2z"/></g></g><g transform="translate(-153.4 -53.1)" id="g38" fill="#fff"><path id="path28" d="M178.9 165.2h3.3v2c-.6.4-1.5.8-2.6.8-2.2 0-3.7-1.5-3.7-3.9 0-2.2 1.5-3.9 3.5-3.9 1.4 0 2.2.5 2.8 1l.5.4 1.3-1.5-.5-.4c-1.2-1-2.4-1.4-4-1.4-3.4 0-5.5 2.9-5.5 5.7 0 3.4 2.3 5.7 5.6 5.7 1.6 0 3.1-.6 4.3-1.6l.2-.2v-4.7h-5.2z"/><path id="path30" d="M220.7 162c0-.9-.3-1.7-.9-2.3-.7-.7-1.9-1.2-3.2-1.2h-4.8v11.1h1.9v-4.1h2.4l3.2 4.1h2.5l-3.4-4.5c1.4-.4 2.3-1.6 2.3-3.1zm-6.9 1.7v-3.3h2.8c.7 0 2.2.2 2.2 1.6 0 1.3-1.2 1.7-2.3 1.7z"/><path id="path32" d="M253.4 158.4c-3.1 0-5.6 2.5-5.6 5.7 0 3.3 2.4 5.7 5.6 5.7 3.1 0 5.6-2.5 5.6-5.7 0-3.3-2.4-5.7-5.6-5.7zm0 9.6c-2.1 0-3.6-1.7-3.6-3.9s1.6-3.9 3.6-3.9c2.1 0 3.6 1.7 3.6 3.9.1 2.2-1.5 3.9-3.6 3.9z"/><path id="path34" d="M293.8 164.9c0 2-.9 3-2.7 3-1.8 0-2.8-1.1-2.8-3.1v-6.3h-1.9v6.4c0 3 1.8 4.9 4.7 4.9 2.9 0 4.7-1.9 4.7-5v-6.3h-1.9v6.4z"/><path id="path36" d="M327.7 158.5h-4.2v11.1h1.9V166h2.1c2.6 0 4.5-1.5 4.5-3.8 0-2.2-1.7-3.7-4.3-3.7zm-.1 5.6h-2.1v-3.7h2.2c.9 0 2.4.2 2.4 1.8 0 1.4-1.3 1.9-2.5 1.9z"/></g></symbol>
<symbol id="logo" viewBox="0 0 239.98132 273.50934"><path d="M148.77 122.947v-35.25h91.751V-.595L.595-.503v273.408l148.268.01v-61.742l91.713-.1v-88.126z" fill="#fbf8f8"/><path d="M46.735 34.332H35.72v5.88h10.035v7.746H35.72v13.814h-9.146V26.585h20.16z"/><g clip-path="url(#a)" transform="matrix(1.33333 0 0 -1.33333 -440.907 534.206)"><path d="M375.217 363.356a4.173 4.173 0 0 1 1.173-2.94 3.844 3.844 0 0 1 1.295-.875 4.168 4.168 0 0 1 1.627-.315c.56 0 1.09.105 1.592.315.502.21.934.502 1.295.875.362.373.654.804.875 1.294a3.78 3.78 0 0 1 .333 1.576 3.89 3.89 0 0 1-.333 1.592 4.454 4.454 0 0 1-.875 1.313 3.844 3.844 0 0 1-1.295.875 4.077 4.077 0 0 1-1.592.314 4.168 4.168 0 0 1-1.627-.314 3.844 3.844 0 0 1-1.295-.875 4.331 4.331 0 0 1-.858-1.277 3.836 3.836 0 0 1-.315-1.558m7.98 8.925h6.37v-17.955h-6.37v1.995c-1.353-1.704-3.185-2.555-5.495-2.555-1.307 0-2.508.24-3.605.717a8.68 8.68 0 0 0-2.87 2.013 9.277 9.277 0 0 0-1.907 3.045c-.456 1.167-.683 2.438-.683 3.815 0 1.282.222 2.502.665 3.657a9.396 9.396 0 0 0 1.855 3.028 8.748 8.748 0 0 0 2.835 2.047c1.097.501 2.31.752 3.64.752 2.24 0 4.095-.78 5.565-2.344zM406.122 367.66c-1.167.607-2.31.91-3.43.91-.584 0-1.056-.116-1.418-.35-.362-.233-.543-.547-.543-.944 0-.21.03-.38.088-.508.058-.128.187-.251.385-.367.198-.117.49-.222.875-.315.385-.094.893-.21 1.522-.35 1.75-.35 3.057-.974 3.92-1.873.864-.898 1.295-2.047 1.295-3.447 0-1.05-.21-1.995-.63-2.835a5.997 5.997 0 0 0-1.75-2.117c-.747-.573-1.644-1.016-2.694-1.33-1.05-.316-2.205-.473-3.466-.473-2.426 0-4.818.688-7.175 2.065l2.311 4.48c1.772-1.214 3.452-1.82 5.04-1.82.583 0 1.062.128 1.435.385.373.256.56.583.56.98 0 .233-.03.426-.088.578-.058.15-.18.29-.367.42-.187.128-.462.245-.823.35-.36.105-.834.215-1.417.333-1.96.396-3.33.985-4.112 1.766-.783.782-1.173 1.86-1.173 3.238 0 1.003.186 1.908.56 2.712.372.806.91 1.488 1.61 2.048.7.56 1.546.99 2.537 1.295.992.303 2.094.455 3.307.455 1.984 0 3.91-.385 5.776-1.155zM412.386 383.376h6.335v-13.37c.863 1.05 1.738 1.756 2.625 2.118.887.36 1.925.542 3.115.542 2.263 0 3.973-.624 5.127-1.872 1.155-1.25 1.734-2.935 1.734-5.058v-11.41h-6.336v9.066c0 .909-.07 1.644-.21 2.204-.14.56-.373.992-.7 1.296-.56.489-1.237.734-2.03.734-1.073 0-1.896-.321-2.468-.962-.572-.642-.857-1.558-.857-2.748v-9.59h-6.335zM442.311 354.326h-6.335v17.955h6.335zm-6.755 24.85c0 .49.092.951.28 1.382a3.613 3.613 0 0 0 1.907 1.908c.432.186.893.28 1.383.28.489 0 .95-.094 1.382-.28.431-.187.81-.444 1.138-.77a3.65 3.65 0 0 0 .77-1.138c.187-.431.279-.892.279-1.382 0-.49-.092-.951-.279-1.382a3.627 3.627 0 0 0-1.908-1.909 3.458 3.458 0 0 0-1.382-.279c-.49 0-.951.093-1.383.279-.431.187-.81.444-1.138.771a3.59 3.59 0 0 0-.769 1.138c-.188.431-.28.892-.28 1.382M452.985 363.391c0-.607.11-1.16.332-1.663.222-.502.513-.94.875-1.313a3.844 3.844 0 0 1 1.295-.875 4.085 4.085 0 0 1 1.593-.314 4.08 4.08 0 0 1 1.592.314c.501.21.933.502 1.295.875.362.373.653.811.875 1.313.222.502.332 1.044.332 1.628 0 .56-.11 1.09-.332 1.592a4.443 4.443 0 0 1-.875 1.312 3.864 3.864 0 0 1-1.295.875 4.082 4.082 0 0 1-1.592.316c-.56 0-1.09-.106-1.593-.316a3.844 3.844 0 0 1-1.295-.875 4.52 4.52 0 0 1-.875-1.295 3.763 3.763 0 0 1-.332-1.574m-6.686.07c0 1.33.27 2.572.806 3.727a9.142 9.142 0 0 0 2.24 3.01c.956.851 2.094 1.522 3.412 2.012 1.318.491 2.76.736 4.323.736 1.54 0 2.968-.24 4.287-.718 1.318-.479 2.462-1.144 3.431-1.995a8.973 8.973 0 0 0 2.256-3.045c.537-1.179.806-2.48.806-3.902 0-1.424-.274-2.725-.823-3.903a9.263 9.263 0 0 0-2.257-3.045c-.957-.852-2.107-1.51-3.447-1.977-1.343-.467-2.795-.7-4.359-.7-1.539 0-2.963.233-4.269.7-1.307.467-2.433 1.131-3.378 1.995a9.228 9.228 0 0 0-2.222 3.097c-.537 1.202-.806 2.538-.806 4.007M471.85 372.281h6.336v-2.275c.863 1.05 1.738 1.755 2.625 2.118.887.361 1.925.542 3.115.542 1.26 0 2.339-.204 3.238-.613a6.46 6.46 0 0 0 2.292-1.732 4.986 4.986 0 0 0 1.05-2.03c.187-.747.28-1.599.28-2.555v-11.41h-6.335v9.065c0 .886-.065 1.604-.193 2.153-.128.548-.355.985-.682 1.312-.28.279-.595.478-.945.595-.35.116-.723.175-1.12.175-1.073 0-1.896-.322-2.468-.962-.572-.643-.857-1.558-.857-2.748v-9.59h-6.335zM365.731 328.552h-8.26v-4.41h7.526v-5.81h-7.526v-10.36h-6.86v26.39h15.12zM375.882 307.972h-6.335v17.955h6.335zm-6.755 24.85c0 .49.093.951.28 1.382a3.633 3.633 0 0 0 1.907 1.908c.432.186.893.28 1.383.28s.95-.094 1.382-.28a3.65 3.65 0 0 0 1.138-.77 3.65 3.65 0 0 0 .77-1.138c.187-.431.28-.892.28-1.382 0-.49-.093-.951-.28-1.382a3.627 3.627 0 0 0-1.908-1.909 3.455 3.455 0 0 0-1.382-.279c-.49 0-.951.093-1.383.279a3.643 3.643 0 0 0-1.907 1.909c-.187.431-.28.892-.28 1.382M386.906 307.972h-6.335v29.05h6.335zM391.597 325.927h6.335v-2.205c1.727 1.656 3.663 2.485 5.81 2.485 2.66 0 4.69-1.12 6.09-3.36 1.423 2.263 3.453 3.394 6.09 3.394.84 0 1.633-.122 2.38-.367a4.897 4.897 0 0 0 1.925-1.155c.537-.524.963-1.207 1.277-2.047.316-.84.473-1.855.473-3.045v-11.655h-6.335v8.855c0 .91-.065 1.657-.192 2.24-.13.583-.316 1.038-.56 1.365-.245.326-.531.548-.857.665a3.128 3.128 0 0 1-1.051.175c-2.03 0-3.045-1.482-3.045-4.445v-8.855h-6.335v8.855c0 .91-.06 1.663-.175 2.257-.117.595-.286 1.068-.508 1.418-.221.35-.507.589-.857.717a3.56 3.56 0 0 1-1.225.193c-.397 0-.77-.058-1.12-.175-.35-.117-.66-.344-.928-.683-.268-.338-.478-.805-.63-1.399-.152-.595-.227-1.372-.227-2.328v-8.855h-6.335zM365.731 282.26h-8.26v-4.41h7.526v-5.81h-7.526v-10.36h-6.86v26.39h15.12zM382.462 273.265c-.21.887-.642 1.598-1.295 2.135-.653.537-1.447.805-2.38.805-.98 0-1.78-.257-2.397-.77-.62-.514-1.01-1.237-1.173-2.17zm-7.42-3.675c0-2.73 1.283-4.095 3.85-4.095 1.377 0 2.415.56 3.115 1.68h6.125c-1.237-4.107-4.328-6.16-9.274-6.16-1.518 0-2.906.228-4.166.683-1.26.455-2.34 1.102-3.238 1.942a8.658 8.658 0 0 0-2.082 3.01c-.49 1.167-.735 2.473-.735 3.92 0 1.493.233 2.841.7 4.043.467 1.201 1.132 2.222 1.995 3.062.863.84 1.907 1.487 3.133 1.943 1.225.455 2.607.682 4.147.682 1.517 0 2.88-.227 4.095-.682 1.213-.456 2.24-1.115 3.08-1.978.84-.863 1.482-1.92 1.925-3.167.443-1.249.665-2.655.665-4.218v-.665zM404.231 275.015c-1.167.606-2.31.91-3.43.91-.584 0-1.056-.117-1.418-.35-.362-.234-.543-.548-.543-.945 0-.21.03-.38.088-.508.058-.128.187-.25.385-.367.198-.117.49-.222.875-.315.385-.094.893-.21 1.522-.35 1.75-.35 3.057-.974 3.92-1.873.864-.898 1.295-2.047 1.295-3.447 0-1.05-.21-1.995-.63-2.835a5.997 5.997 0 0 0-1.75-2.117c-.747-.573-1.644-1.016-2.694-1.33-1.05-.316-2.205-.473-3.466-.473-2.426 0-4.818.688-7.175 2.065l2.311 4.48c1.772-1.214 3.452-1.82 5.04-1.82.583 0 1.062.128 1.435.385.373.256.56.583.56.98 0 .233-.03.426-.088.578-.058.151-.18.291-.367.42-.187.128-.462.245-.823.35-.36.105-.834.215-1.417.333-1.96.396-3.33.985-4.112 1.766-.783.782-1.173 1.861-1.173 3.238 0 1.003.186 1.908.56 2.712.372.806.91 1.488 1.61 2.048.7.56 1.546.991 2.537 1.295.992.303 2.094.455 3.307.455 1.984 0 3.91-.385 5.776-1.155zM418.056 274.35v-12.67h-6.335v12.67h-2.101v5.285h2.1v5.39h6.336v-5.39h3.604v-5.285zM431.215 261.68h-6.335v17.955h6.335zm-6.755 24.85c0 .49.093.951.28 1.383a3.637 3.637 0 0 0 1.907 1.907c.432.187.893.28 1.383.28s.95-.093 1.382-.28a3.63 3.63 0 0 0 1.908-1.907c.187-.432.28-.893.28-1.383 0-.489-.093-.95-.28-1.382a3.616 3.616 0 0 0-1.908-1.908 3.438 3.438 0 0 0-1.382-.279c-.49 0-.951.092-1.383.279a3.623 3.623 0 0 0-1.907 1.908c-.187.432-.28.893-.28 1.382M441.225 279.635l4.27-9.205 4.34 9.205h7.07l-9.345-17.955h-4.234l-9.241 17.955zM464.43 270.71a4.173 4.173 0 0 1 1.173-2.94 3.844 3.844 0 0 1 1.295-.874 4.168 4.168 0 0 1 1.627-.315c.56 0 1.09.105 1.592.315.502.21.934.502 1.295.875.362.373.654.804.875 1.294a3.78 3.78 0 0 1 .333 1.576 3.89 3.89 0 0 1-.333 1.592 4.454 4.454 0 0 1-.875 1.313 3.844 3.844 0 0 1-1.295.875 4.077 4.077 0 0 1-1.592.314 4.168 4.168 0 0 1-1.627-.314 3.844 3.844 0 0 1-1.295-.875 4.331 4.331 0 0 1-.858-1.277 3.836 3.836 0 0 1-.315-1.558m7.98 8.925h6.37V261.68h-6.37v1.995c-1.353-1.704-3.185-2.555-5.495-2.555-1.307 0-2.508.239-3.605.717a8.68 8.68 0 0 0-2.87 2.013 9.277 9.277 0 0 0-1.907 3.045c-.456 1.167-.683 2.438-.683 3.815 0 1.282.222 2.502.665 3.657a9.396 9.396 0 0 0 1.855 3.028 8.748 8.748 0 0 0 2.835 2.047c1.097.5 2.31.752 3.64.752 2.24 0 4.095-.781 5.565-2.344zM489.769 261.68h-6.335v29.05h6.335zM357.472 230.873l8.365 10.885h8.47l-10.465-12.495 11.445-13.895h-8.89l-8.925 11.445v-11.445h-6.86v26.39h6.86z"/><path d="M380.991 217.818l-8.68 15.505h7.35l4.795-9.205 4.655 9.205h7.28l-14.42-26.915h-7.105zM405.246 215.368h-6.335v17.955h6.335zm-6.755 24.849c0 .491.093.952.28 1.383a3.633 3.633 0 0 0 1.908 1.908c.431.186.892.28 1.383.28.489 0 .95-.094 1.381-.28a3.65 3.65 0 0 0 1.909-1.908c.186-.431.279-.892.279-1.383 0-.489-.093-.95-.279-1.381a3.647 3.647 0 0 0-1.909-1.909 3.45 3.45 0 0 0-1.381-.279c-.491 0-.952.093-1.383.279a3.636 3.636 0 0 0-1.908 1.909c-.187.431-.28.892-.28 1.381M415.255 233.323l4.27-9.205 4.34 9.205h7.07l-9.345-17.955h-4.234l-9.241 17.955z"/></g></symbol>
<symbol id="ufw" viewBox="0 0 446 278.4"><g id="g44"><path id="path4" d="M28.4 69.1c-15.9 0-22.7-8.2-22.7-23.8V0h14.2v45.3c0 7.1 1.3 13.7 8.6 13.7 7.5 0 9.4-6.3 9.4-13.4V0h13.8v45.1c.1 13.4-4.3 24-23.3 24z" class="st0" fill="#fff"/><path id="path6" d="M92.3 67.9L75.9 33.6v34.3H61.6V0h14.3v28.6L92.7 0h15.6l-19 30.5 19 37.4z" class="st0" fill="#fff"/><path id="path8" d="M144.3 67.9c-1.6-3.4-1.5-5.5-1.5-8.4v-8.9c0-8.3-2.2-10.8-11.1-10.8h-2.6v28.1h-14.3V0h23.4c10.8 0 18.5 4 18.5 18 0 9.7-3.9 15-12.4 16.5 12.7 1.6 11.9 8.6 12.6 20.1l.3 4.8c.2 2.7.2 5.8 1 8.5zM131 10.4h-2v18.9h3.5c6.9 0 10-1.9 10-9.7 0-8.6-3.8-9.2-11.5-9.2z" class="st0" fill="#fff"/><path id="path10" d="M204.7 67.9l-3.8-15h-19.4l-3.9 15h-14L182.5 0h18.7l18.4 67.9zM191 13.1l-6.7 29.5H198z" class="st0" fill="#fff"/><path id="path12" d="M226.4 67.9V0h14.2v67.9z" class="st0" fill="#fff"/><path id="path14" d="M282.8 67.9l-18.6-49.6v49.6H251V0h19.1l18.1 47V0h13.2v67.9z" class="st0" fill="#fff"/><path id="path16" d="M311.9 67.9V0h14.2v67.9z" class="st0" fill="#fff"/><path id="path18" d="M373.8 67.9l-3.8-15h-19.4l-3.9 15h-14L351.6 0h18.7l18.4 67.9zM360 13.1l-6.7 29.5H367z" class="st0" fill="#fff"/><path id="path20" d="M427.3 67.9l-18.6-49.6v49.6h-13.2V0h19.1l18.1 47V0H446v67.9z" class="st0" fill="#fff"/><path id="path22" d="M20 115.7v17.4h20v10.4H20v29.6H5.7v-67.9H41v10.4H20z" class="st0" fill="#fff"/><path id="path24" d="M81.6 173.1l-3.8-15H58.5l-3.9 15h-14l18.8-67.9h18.7l18.4 67.9zm-13.7-54.8l-6.7 29.5h13.7z" class="st0" fill="#fff"/><path id="path26" d="M121.5 174.3c-12.4 0-20.6-5.2-20.6-17.9v-4.3h14.4v1.8c0 7.1 2.3 10.2 7.7 10.2 4.8 0 7.5-2.7 7.5-7.5 0-3.7-1.5-6-5.3-8.3l-7.9-4.8c-10.7-6.5-15.3-10.2-15.5-20.8-.3-13.6 10.2-18.6 22.4-18.6 13.3 0 19.7 5.6 19.7 17.3v3.1H130v-1.7c0-5.7-2.4-8.7-6.9-8.7-4.1 0-6.9 3-6.9 7.5 0 3 1.4 5.5 4.6 7.4l13.4 8.6c7.1 4.5 10.4 8.4 10.4 17.2.2 14.8-9.7 19.5-23.1 19.5z" class="st0" fill="#fff"/><path id="path28" d="M183.6 173.1v-29.9h-16.1v29.9h-14.3v-67.9h14.3v26.9h16.1v-26.9h14.3v67.9z" class="st0" fill="#fff"/><path id="path30" d="M208.5 173.1v-67.9h14.2v67.9z" class="st0" fill="#fff"/><path id="path32" d="M255.3 174.3c-22.1 0-23.2-16.7-23.2-36.1 0-18.8 1.8-34.8 23.4-34.8 23 0 23.7 15 23.7 35.3 0 20.1-.5 35.6-23.9 35.6zm.4-60.7c-9 0-9.1 8.6-9.1 27 0 15.2.8 23.7 8.9 23.7 9.1 0 9.2-8.7 9.2-26.6 0-14.5.3-24.1-9-24.1z" class="st0" fill="#fff"/><path id="path34" d="M320.5 173.1l-18.6-49.6v49.6h-13.2v-67.9h19.1l18.1 47v-47h13.2v67.9z" class="st0" fill="#fff"/><path id="path36" d="M68.7 278.4H53l-10.7-49.6-11.8 49.6H15L0 210.5h14.6l8.9 47.7 10.8-47.7H51l10.2 47.7 8.6-47.7h13.9z" class="st0" fill="#fff"/><path id="path38" d="M90.3 278.4v-67.9h37v10.4h-22.8v16.7h21.1V248h-21.1v19.6h23.6v10.6H90.3z" class="st0" fill="#fff"/><path id="path40" d="M135.9 278.4v-67.9h37v10.4h-22.8v16.7h21.1V248h-21.1v19.6h23.6v10.6h-37.8z" class="st0" fill="#fff"/><path id="path42" d="M211.9 278.4L195.5 244v34.3h-14.3v-67.9h14.3V239l16.7-28.6h15.6l-19 30.5 19 37.4h-15.9z" class="st0" fill="#fff"/></g></symbol>
</svg>