<?xml version="1.0" encoding="UTF-8" standalone="no"?>
<svg
   xmlns:dc="http://purl.org/dc/elements/1.1/"
   xmlns:cc="http://creativecommons.org/ns#"
   xmlns:rdf="http://www.w3.org/1999/02/22-rdf-syntax-ns#"
   xmlns:svg="http://www.w3.org/2000/svg"
   xmlns="http://www.w3.org/2000/svg"
   viewBox="0 0 239.98132 273.50934"
   height="273.50934"
   width="239.98132"
   xml:space="preserve"
   id="svg2"
   version="1.1"><metadata
     id="metadata8"><rdf:RDF><cc:Work
         rdf:about=""><dc:format>image/svg+xml</dc:format><dc:type
           rdf:resource="http://purl.org/dc/dcmitype/StillImage" /><dc:title></dc:title></cc:Work></rdf:RDF></metadata><defs
     id="defs6"><clipPath
       id="clipPath26"
       clipPathUnits="userSpaceOnUse"><path
         id="path24"
         d="M 0,595.28 H 841.89 V 0 H 0 Z" /></clipPath></defs><g
     transform="matrix(1.3333333,0,0,-1.3333333,-440.90732,534.20625)"
     id="g10"><g
       transform="translate(653.16756,306.66101)"
       id="g12"><path
         id="path14"
         style="fill:#fbf8f8;fill-opacity:1;fill-rule:nonzero;stroke:none"
         d="m -210.90916,1.783587 v 26.437 h 68.813 v 66.219 l -179.945,-0.069 V -110.68541 l 111.201,-0.007 v 46.305997 l 68.785,0.076 v 66.094 z" /></g><g
       style="fill:#000000"
       transform="translate(365.7314,374.906)"
       id="g16"><path
         id="path18"
         style="fill:#000000;fill-opacity:1;fill-rule:nonzero;stroke:none"
         d="m 0,0 h -8.26 v -4.41 h 7.526 v -5.81 H -8.26 v -10.36 h -6.86 V 5.81 H 0 Z" /></g><g
       style="fill:#000000"
       id="g20"><g
         style="fill:#000000"
         clip-path="url(#clipPath26)"
         id="g22"><g
           style="fill:#000000"
           transform="translate(375.2168,363.3562)"
           id="g28"><path
             id="path30"
             style="fill:#000000;fill-opacity:1;fill-rule:nonzero;stroke:none"
             d="m 0,0 c 0,-0.584 0.105,-1.126 0.315,-1.628 0.21,-0.502 0.496,-0.939 0.858,-1.312 0.361,-0.373 0.793,-0.665 1.295,-0.875 0.501,-0.21 1.044,-0.315 1.627,-0.315 0.56,0 1.091,0.105 1.592,0.315 0.502,0.21 0.934,0.502 1.295,0.875 0.362,0.373 0.654,0.804 0.875,1.294 C 8.079,-1.155 8.19,-0.63 8.19,-0.07 8.19,0.489 8.079,1.021 7.857,1.522 7.636,2.023 7.344,2.461 6.982,2.835 6.621,3.208 6.189,3.5 5.687,3.71 5.186,3.92 4.655,4.024 4.095,4.024 3.512,4.024 2.969,3.92 2.468,3.71 1.966,3.5 1.534,3.208 1.173,2.835 0.811,2.461 0.525,2.035 0.315,1.558 0.105,1.079 0,0.56 0,0 m 7.98,8.925 h 6.371 V -9.03 H 7.98 v 1.995 C 6.627,-8.739 4.795,-9.59 2.485,-9.59 c -1.307,0 -2.508,0.239 -3.605,0.717 -1.097,0.478 -2.053,1.149 -2.87,2.013 -0.817,0.863 -1.452,1.878 -1.907,3.045 -0.456,1.167 -0.683,2.438 -0.683,3.815 0,1.282 0.222,2.502 0.665,3.657 0.443,1.155 1.061,2.164 1.855,3.028 0.793,0.863 1.738,1.545 2.835,2.047 1.097,0.501 2.31,0.752 3.64,0.752 2.24,0 4.095,-0.781 5.565,-2.344 z" /></g><g
           style="fill:#000000"
           transform="translate(406.1221,367.6609)"
           id="g32"><path
             id="path34"
             style="fill:#000000;fill-opacity:1;fill-rule:nonzero;stroke:none"
             d="m 0,0 c -1.167,0.606 -2.311,0.91 -3.431,0.91 -0.583,0 -1.055,-0.117 -1.417,-0.35 -0.362,-0.234 -0.543,-0.548 -0.543,-0.945 0,-0.21 0.03,-0.38 0.088,-0.508 0.058,-0.128 0.187,-0.251 0.385,-0.367 0.198,-0.117 0.49,-0.222 0.875,-0.315 0.385,-0.094 0.893,-0.21 1.522,-0.35 1.75,-0.35 3.057,-0.974 3.92,-1.873 0.864,-0.898 1.295,-2.047 1.295,-3.447 0,-1.05 -0.21,-1.995 -0.63,-2.835 -0.419,-0.84 -1.002,-1.546 -1.75,-2.117 -0.747,-0.573 -1.644,-1.016 -2.694,-1.33 C -3.431,-13.843 -4.585,-14 -5.846,-14 c -2.426,0 -4.818,0.688 -7.175,2.065 l 2.311,4.48 c 1.772,-1.214 3.452,-1.82 5.04,-1.82 0.583,0 1.062,0.128 1.435,0.385 0.373,0.256 0.559,0.583 0.559,0.98 0,0.233 -0.029,0.426 -0.087,0.578 -0.058,0.151 -0.18,0.291 -0.367,0.42 -0.187,0.128 -0.462,0.245 -0.823,0.35 -0.361,0.105 -0.834,0.215 -1.417,0.333 -1.96,0.396 -3.331,0.985 -4.112,1.766 -0.783,0.782 -1.173,1.861 -1.173,3.238 0,1.003 0.186,1.908 0.559,2.712 0.373,0.806 0.91,1.488 1.611,2.048 0.7,0.56 1.546,0.991 2.537,1.295 0.992,0.303 2.094,0.455 3.307,0.455 1.984,0 3.909,-0.385 5.776,-1.155 z" /></g><g
           style="fill:#000000"
           transform="translate(412.3857,383.3757)"
           id="g36"><path
             id="path38"
             style="fill:#000000;fill-opacity:1;fill-rule:nonzero;stroke:none"
             d="m 0,0 h 6.335 v -13.37 c 0.863,1.051 1.738,1.756 2.625,2.118 0.887,0.361 1.925,0.542 3.115,0.542 2.263,0 3.973,-0.624 5.127,-1.872 1.155,-1.249 1.734,-2.935 1.734,-5.058 V -29.05 H 12.6 v 9.066 c 0,0.909 -0.07,1.644 -0.21,2.204 -0.14,0.56 -0.373,0.992 -0.7,1.296 -0.56,0.489 -1.237,0.734 -2.03,0.734 -1.073,0 -1.896,-0.321 -2.468,-0.962 C 6.62,-17.354 6.335,-18.27 6.335,-19.46 v -9.59 H 0 Z" /></g><path
           id="path40"
           style="fill:#000000;fill-opacity:1;fill-rule:nonzero;stroke:none"
           d="m 442.311,354.326 h -6.335 v 17.955 h 6.335 z m -6.755,24.85 c 0,0.49 0.092,0.951 0.28,1.382 0.186,0.432 0.442,0.811 0.769,1.138 0.328,0.326 0.707,0.583 1.138,0.77 0.432,0.186 0.893,0.28 1.383,0.28 0.489,0 0.95,-0.094 1.382,-0.28 0.431,-0.187 0.81,-0.444 1.138,-0.77 0.326,-0.327 0.583,-0.706 0.77,-1.138 0.187,-0.431 0.279,-0.892 0.279,-1.382 0,-0.49 -0.092,-0.951 -0.279,-1.382 -0.187,-0.433 -0.444,-0.812 -0.77,-1.138 -0.328,-0.327 -0.707,-0.584 -1.138,-0.771 -0.432,-0.186 -0.893,-0.279 -1.382,-0.279 -0.49,0 -0.951,0.093 -1.383,0.279 -0.431,0.187 -0.81,0.444 -1.138,0.771 -0.327,0.326 -0.583,0.705 -0.769,1.138 -0.188,0.431 -0.28,0.892 -0.28,1.382" /><g
           style="fill:#000000"
           transform="translate(452.9854,363.3913)"
           id="g42"><path
             id="path44"
             style="fill:#000000;fill-opacity:1;fill-rule:nonzero;stroke:none"
             d="M 0,0 C 0,-0.607 0.11,-1.161 0.332,-1.663 0.554,-2.165 0.845,-2.603 1.207,-2.976 1.568,-3.349 2,-3.641 2.502,-3.851 c 0.502,-0.21 1.033,-0.314 1.593,-0.314 0.559,0 1.091,0.104 1.592,0.314 0.501,0.21 0.933,0.502 1.295,0.875 0.362,0.373 0.653,0.811 0.875,1.313 0.222,0.502 0.332,1.044 0.332,1.628 0,0.559 -0.11,1.09 -0.332,1.592 C 7.635,2.059 7.344,2.496 6.982,2.869 6.62,3.242 6.188,3.534 5.687,3.744 5.186,3.954 4.654,4.06 4.095,4.06 3.535,4.06 3.004,3.954 2.502,3.744 2,3.534 1.568,3.242 1.207,2.869 0.845,2.496 0.554,2.064 0.332,1.574 0.11,1.085 0,0.56 0,0 m -6.686,0.069 c 0,1.33 0.269,2.573 0.806,3.728 0.536,1.155 1.282,2.158 2.239,3.01 0.957,0.851 2.095,1.522 3.413,2.012 1.318,0.491 2.759,0.736 4.323,0.736 1.54,0 2.968,-0.24 4.287,-0.718 C 9.7,8.358 10.844,7.693 11.813,6.842 12.78,5.99 13.532,4.975 14.069,3.797 c 0.537,-1.179 0.806,-2.48 0.806,-3.902 0,-1.424 -0.274,-2.725 -0.823,-3.903 -0.548,-1.179 -1.301,-2.193 -2.257,-3.045 -0.957,-0.852 -2.107,-1.51 -3.447,-1.977 -1.343,-0.467 -2.795,-0.7 -4.359,-0.7 -1.539,0 -2.963,0.233 -4.269,0.7 -1.307,0.467 -2.433,1.131 -3.378,1.995 -0.945,0.862 -1.686,1.895 -2.222,3.097 -0.537,1.202 -0.806,2.538 -0.806,4.007" /></g><g
           style="fill:#000000"
           transform="translate(471.8506,372.281)"
           id="g46"><path
             id="path48"
             style="fill:#000000;fill-opacity:1;fill-rule:nonzero;stroke:none"
             d="m 0,0 h 6.335 v -2.275 c 0.863,1.05 1.738,1.755 2.625,2.118 0.887,0.361 1.925,0.542 3.115,0.542 1.26,0 2.339,-0.204 3.238,-0.613 0.898,-0.408 1.662,-0.986 2.292,-1.732 0.513,-0.607 0.863,-1.283 1.05,-2.03 0.187,-0.747 0.281,-1.599 0.281,-2.555 v -11.41 H 12.6 v 9.065 c 0,0.886 -0.065,1.604 -0.193,2.153 -0.128,0.548 -0.355,0.985 -0.682,1.312 -0.28,0.279 -0.595,0.478 -0.945,0.595 -0.35,0.116 -0.723,0.175 -1.12,0.175 -1.073,0 -1.896,-0.322 -2.468,-0.962 C 6.62,-6.26 6.335,-7.175 6.335,-8.365 v -9.59 H 0 Z" /></g><g
           style="fill:#000000"
           transform="translate(365.7314,328.552)"
           id="g50"><path
             id="path52"
             style="fill:#000000;fill-opacity:1;fill-rule:nonzero;stroke:none"
             d="m 0,0 h -8.26 v -4.41 h 7.526 v -5.81 H -8.26 v -10.36 h -6.86 V 5.81 H 0 Z" /></g><path
           id="path54"
           style="fill:#000000;fill-opacity:1;fill-rule:nonzero;stroke:none"
           d="m 375.882,307.972 h -6.335 v 17.955 h 6.335 z m -6.755,24.85 c 0,0.49 0.093,0.951 0.28,1.382 0.187,0.432 0.443,0.811 0.77,1.138 0.327,0.326 0.706,0.583 1.137,0.77 0.432,0.186 0.893,0.28 1.383,0.28 0.49,0 0.95,-0.094 1.382,-0.28 0.432,-0.187 0.811,-0.444 1.138,-0.77 0.326,-0.327 0.583,-0.706 0.77,-1.138 0.187,-0.431 0.28,-0.892 0.28,-1.382 0,-0.49 -0.093,-0.951 -0.28,-1.382 -0.187,-0.433 -0.444,-0.812 -0.77,-1.138 -0.327,-0.327 -0.706,-0.584 -1.138,-0.771 -0.432,-0.186 -0.892,-0.279 -1.382,-0.279 -0.49,0 -0.951,0.093 -1.383,0.279 -0.431,0.187 -0.81,0.444 -1.137,0.771 -0.327,0.326 -0.583,0.705 -0.77,1.138 -0.187,0.431 -0.28,0.892 -0.28,1.382" /><path
           id="path56"
           style="fill:#000000;fill-opacity:1;fill-rule:nonzero;stroke:none"
           d="m 386.906,307.972 h -6.335 v 29.05 h 6.335 z" /><g
           style="fill:#000000"
           transform="translate(391.5967,325.927)"
           id="g58"><path
             id="path60"
             style="fill:#000000;fill-opacity:1;fill-rule:nonzero;stroke:none"
             d="m 0,0 h 6.335 v -2.205 c 1.727,1.656 3.663,2.485 5.811,2.485 2.659,0 4.689,-1.12 6.089,-3.36 1.423,2.263 3.453,3.394 6.09,3.394 0.84,0 1.633,-0.122 2.38,-0.367 0.746,-0.245 1.388,-0.63 1.925,-1.155 0.537,-0.524 0.963,-1.207 1.277,-2.047 0.316,-0.84 0.473,-1.855 0.473,-3.045 V -17.955 H 24.045 V -9.1 c 0,0.91 -0.065,1.657 -0.192,2.24 -0.129,0.583 -0.316,1.038 -0.56,1.365 -0.245,0.326 -0.531,0.548 -0.857,0.665 -0.328,0.116 -0.678,0.175 -1.051,0.175 -2.03,0 -3.045,-1.482 -3.045,-4.445 v -8.855 H 12.005 V -9.1 c 0,0.91 -0.059,1.663 -0.175,2.257 -0.117,0.595 -0.286,1.068 -0.508,1.418 -0.221,0.35 -0.507,0.589 -0.857,0.717 -0.35,0.128 -0.758,0.193 -1.225,0.193 -0.397,0 -0.77,-0.058 -1.12,-0.175 C 7.771,-4.807 7.461,-5.034 7.192,-5.373 6.924,-5.711 6.714,-6.178 6.562,-6.772 6.41,-7.367 6.335,-8.144 6.335,-9.1 v -8.855 H 0 Z" /></g><g
           style="fill:#000000"
           transform="translate(365.7314,282.2605)"
           id="g62"><path
             id="path64"
             style="fill:#000000;fill-opacity:1;fill-rule:nonzero;stroke:none"
             d="m 0,0 h -8.26 v -4.41 h 7.526 v -5.81 H -8.26 v -10.36 h -6.86 V 5.81 H 0 Z" /></g><g
           style="fill:#000000"
           transform="translate(382.4619,273.2654)"
           id="g66"><path
             id="path68"
             style="fill:#000000;fill-opacity:1;fill-rule:nonzero;stroke:none"
             d="M 0,0 C -0.21,0.887 -0.642,1.598 -1.295,2.135 -1.948,2.672 -2.742,2.94 -3.675,2.94 -4.655,2.94 -5.454,2.683 -6.072,2.17 -6.691,1.656 -7.082,0.933 -7.245,0 Z m -7.42,-3.675 c 0,-2.73 1.283,-4.095 3.85,-4.095 1.377,0 2.415,0.56 3.115,1.68 H 5.67 c -1.237,-4.107 -4.328,-6.16 -9.274,-6.16 -1.518,0 -2.906,0.228 -4.166,0.683 -1.26,0.455 -2.339,1.102 -3.238,1.942 -0.898,0.84 -1.592,1.843 -2.082,3.01 -0.49,1.167 -0.735,2.473 -0.735,3.92 0,1.493 0.233,2.841 0.7,4.043 0.467,1.201 1.132,2.222 1.995,3.062 0.863,0.84 1.907,1.487 3.133,1.943 1.225,0.455 2.607,0.682 4.147,0.682 1.517,0 2.881,-0.227 4.095,-0.682 C 1.458,5.897 2.485,5.238 3.325,4.375 4.165,3.512 4.807,2.455 5.25,1.208 5.693,-0.041 5.915,-1.447 5.915,-3.01 v -0.665 z" /></g><g
           style="fill:#000000"
           transform="translate(404.2314,275.0154)"
           id="g70"><path
             id="path72"
             style="fill:#000000;fill-opacity:1;fill-rule:nonzero;stroke:none"
             d="m 0,0 c -1.167,0.606 -2.311,0.91 -3.431,0.91 -0.583,0 -1.055,-0.117 -1.417,-0.35 -0.362,-0.234 -0.543,-0.548 -0.543,-0.945 0,-0.21 0.03,-0.38 0.088,-0.508 0.058,-0.128 0.187,-0.251 0.385,-0.367 0.198,-0.117 0.49,-0.222 0.875,-0.315 0.385,-0.094 0.893,-0.21 1.522,-0.35 1.75,-0.35 3.057,-0.974 3.92,-1.873 0.864,-0.898 1.295,-2.047 1.295,-3.447 0,-1.05 -0.21,-1.995 -0.63,-2.835 -0.419,-0.84 -1.002,-1.546 -1.75,-2.117 -0.747,-0.573 -1.644,-1.016 -2.694,-1.33 C -3.431,-13.843 -4.585,-14 -5.846,-14 c -2.426,0 -4.818,0.688 -7.175,2.065 l 2.311,4.48 c 1.772,-1.214 3.452,-1.82 5.04,-1.82 0.583,0 1.062,0.128 1.435,0.385 0.373,0.256 0.559,0.583 0.559,0.98 0,0.233 -0.029,0.426 -0.087,0.578 -0.058,0.151 -0.18,0.291 -0.367,0.42 -0.187,0.128 -0.462,0.245 -0.823,0.35 -0.361,0.105 -0.834,0.215 -1.417,0.333 -1.96,0.396 -3.331,0.985 -4.112,1.766 -0.783,0.782 -1.173,1.861 -1.173,3.238 0,1.003 0.186,1.908 0.559,2.712 0.373,0.806 0.91,1.488 1.611,2.048 0.7,0.56 1.546,0.991 2.537,1.295 0.992,0.303 2.094,0.455 3.307,0.455 1.984,0 3.909,-0.385 5.776,-1.155 z" /></g><g
           style="fill:#000000"
           transform="translate(418.0557,274.3503)"
           id="g74"><path
             id="path76"
             style="fill:#000000;fill-opacity:1;fill-rule:nonzero;stroke:none"
             d="M 0,0 V -12.67 H -6.335 V 0 h -2.101 v 5.285 h 2.101 v 5.39 H 0 V 5.285 H 3.604 V 0 Z" /></g><path
           id="path78"
           style="fill:#000000;fill-opacity:1;fill-rule:nonzero;stroke:none"
           d="m 431.215,261.68 h -6.335 v 17.955 h 6.335 z m -6.755,24.85 c 0,0.49 0.093,0.951 0.28,1.383 0.187,0.431 0.443,0.81 0.77,1.138 0.327,0.326 0.706,0.583 1.137,0.769 0.432,0.187 0.893,0.28 1.383,0.28 0.49,0 0.95,-0.093 1.382,-0.28 0.432,-0.186 0.811,-0.443 1.138,-0.769 0.326,-0.328 0.583,-0.707 0.77,-1.138 0.187,-0.432 0.28,-0.893 0.28,-1.383 0,-0.489 -0.093,-0.95 -0.28,-1.382 -0.187,-0.432 -0.444,-0.811 -0.77,-1.138 -0.327,-0.327 -0.706,-0.584 -1.138,-0.77 -0.432,-0.187 -0.892,-0.279 -1.382,-0.279 -0.49,0 -0.951,0.092 -1.383,0.279 -0.431,0.186 -0.81,0.443 -1.137,0.77 -0.327,0.327 -0.583,0.706 -0.77,1.138 -0.187,0.432 -0.28,0.893 -0.28,1.382" /><g
           style="fill:#000000"
           transform="translate(441.2246,279.6355)"
           id="g80"><path
             id="path82"
             style="fill:#000000;fill-opacity:1;fill-rule:nonzero;stroke:none"
             d="M 0,0 4.271,-9.205 8.61,0 h 7.071 L 6.335,-17.955 H 2.101 L -7.14,0 Z" /></g><g
           style="fill:#000000"
           transform="translate(464.4297,270.7107)"
           id="g84"><path
             id="path86"
             style="fill:#000000;fill-opacity:1;fill-rule:nonzero;stroke:none"
             d="m 0,0 c 0,-0.584 0.105,-1.126 0.315,-1.628 0.21,-0.502 0.496,-0.939 0.858,-1.312 0.361,-0.373 0.793,-0.665 1.295,-0.875 0.501,-0.21 1.044,-0.315 1.627,-0.315 0.56,0 1.091,0.105 1.592,0.315 0.502,0.21 0.934,0.502 1.295,0.875 0.362,0.373 0.654,0.804 0.875,1.294 C 8.079,-1.155 8.19,-0.63 8.19,-0.07 8.19,0.489 8.079,1.021 7.857,1.522 7.636,2.023 7.344,2.461 6.982,2.835 6.621,3.208 6.189,3.5 5.687,3.71 5.186,3.92 4.655,4.024 4.095,4.024 3.512,4.024 2.969,3.92 2.468,3.71 1.966,3.5 1.534,3.208 1.173,2.835 0.811,2.461 0.525,2.035 0.315,1.558 0.105,1.079 0,0.56 0,0 m 7.98,8.925 h 6.371 V -9.03 H 7.98 v 1.995 C 6.627,-8.739 4.795,-9.59 2.485,-9.59 c -1.307,0 -2.508,0.239 -3.605,0.717 -1.097,0.478 -2.053,1.149 -2.87,2.013 -0.817,0.863 -1.452,1.878 -1.907,3.045 -0.456,1.167 -0.683,2.438 -0.683,3.815 0,1.282 0.222,2.502 0.665,3.657 0.443,1.155 1.061,2.164 1.855,3.028 0.793,0.863 1.738,1.545 2.835,2.047 1.097,0.501 2.31,0.752 3.64,0.752 2.24,0 4.095,-0.781 5.565,-2.344 z" /></g><path
           id="path88"
           style="fill:#000000;fill-opacity:1;fill-rule:nonzero;stroke:none"
           d="m 489.769,261.68 h -6.335 v 29.05 h 6.335 z" /><g
           style="fill:#000000"
           transform="translate(357.4717,230.8728)"
           id="g90"><path
             id="path92"
             style="fill:#000000;fill-opacity:1;fill-rule:nonzero;stroke:none"
             d="m 0,0 8.365,10.885 h 8.47 L 6.37,-1.61 17.815,-15.505 H 8.925 L 0,-4.06 v -11.445 h -6.86 v 26.39 H 0 Z" /></g><g
           style="fill:#000000"
           transform="translate(380.9912,217.8181)"
           id="g94"><path
             id="path96"
             style="fill:#000000;fill-opacity:1;fill-rule:nonzero;stroke:none"
             d="m 0,0 -8.68,15.505 h 7.35 L 3.465,6.3 8.12,15.505 H 15.4 L 0.98,-11.41 h -7.105 z" /></g><path
           id="path98"
           style="fill:#000000;fill-opacity:1;fill-rule:nonzero;stroke:none"
           d="m 405.246,215.368 h -6.335 v 17.955 h 6.335 z m -6.755,24.849 c 0,0.491 0.093,0.952 0.28,1.383 0.187,0.432 0.443,0.811 0.77,1.138 0.327,0.326 0.706,0.583 1.138,0.77 0.431,0.186 0.892,0.28 1.383,0.28 0.489,0 0.95,-0.094 1.381,-0.28 0.432,-0.187 0.811,-0.444 1.138,-0.77 0.326,-0.327 0.583,-0.706 0.771,-1.138 0.186,-0.431 0.279,-0.892 0.279,-1.383 0,-0.489 -0.093,-0.95 -0.279,-1.381 -0.188,-0.433 -0.445,-0.812 -0.771,-1.138 -0.327,-0.327 -0.706,-0.584 -1.138,-0.771 -0.431,-0.186 -0.892,-0.279 -1.381,-0.279 -0.491,0 -0.952,0.093 -1.383,0.279 -0.432,0.187 -0.811,0.444 -1.138,0.771 -0.327,0.326 -0.583,0.705 -0.77,1.138 -0.187,0.431 -0.28,0.892 -0.28,1.381" /><g
           style="fill:#000000"
           transform="translate(415.2549,233.323)"
           id="g100"><path
             id="path102"
             style="fill:#000000;fill-opacity:1;fill-rule:nonzero;stroke:none"
             d="M 0,0 4.271,-9.205 8.61,0 h 7.071 L 6.335,-17.955 H 2.101 L -7.14,0 Z" /></g></g></g></g></svg>