<?xml version="1.0" encoding="UTF-8" standalone="no"?>
<svg
   xmlns="http://www.w3.org/2000/svg"
   height="278.39999"
   width="446"
   xml:space="preserve"
   viewBox="0 0 446 278.4"
   y="0px"
   x="0px"
   id="Layer_1"
   version="1.1"><metadata
     id="metadata51"></metadata><defs
     id="defs49" /><style
     id="style2"
     type="text/css">
	.st0{fill:#FFFFFF;}
</style><g
     id="g44"><path
       style="fill:#ffffff"
       id="path4"
       d="M 28.4,69.1 C 12.5,69.1 5.7,60.9 5.7,45.3 V 0 h 14.2 v 45.3 c 0,7.1 1.3,13.7 8.6,13.7 7.5,0 9.4,-6.3 9.4,-13.4 V 0 h 13.8 v 45.1 c 0.1,13.4 -4.3,24 -23.3,24 z"
       class="st0" /><path
       style="fill:#ffffff"
       id="path6"
       d="M 92.3,67.9 75.9,33.6 V 67.9 H 61.6 V 0 H 75.9 V 28.6 L 92.7,0 h 15.6 l -19,30.5 19,37.4 z"
       class="st0" /><path
       style="fill:#ffffff"
       id="path8"
       d="m 144.3,67.9 c -1.6,-3.4 -1.5,-5.5 -1.5,-8.4 v -8.9 c 0,-8.3 -2.2,-10.8 -11.1,-10.8 h -2.6 V 67.9 H 114.8 V 0 h 23.4 c 10.8,0 18.5,4 18.5,18 0,9.7 -3.9,15 -12.4,16.5 12.7,1.6 11.9,8.6 12.6,20.1 l 0.3,4.8 c 0.2,2.7 0.2,5.8 1,8.5 z M 131,10.4 h -2 v 18.9 h 3.5 c 6.9,0 10,-1.9 10,-9.7 0,-8.6 -3.8,-9.2 -11.5,-9.2 z"
       class="st0" /><path
       style="fill:#ffffff"
       id="path10"
       d="m 204.7,67.9 -3.8,-15 h -19.4 l -3.9,15 h -14 L 182.5,0 h 18.7 l 18.4,67.9 z M 191,13.1 184.3,42.6 H 198 Z"
       class="st0" /><path
       style="fill:#ffffff"
       id="path12"
       d="M 226.4,67.9 V 0 h 14.2 v 67.9 z"
       class="st0" /><path
       style="fill:#ffffff"
       id="path14"
       d="M 282.8,67.9 264.2,18.3 V 67.9 H 251 V 0 h 19.1 l 18.1,47 V 0 h 13.2 v 67.9 z"
       class="st0" /><path
       style="fill:#ffffff"
       id="path16"
       d="M 311.9,67.9 V 0 h 14.2 v 67.9 z"
       class="st0" /><path
       style="fill:#ffffff"
       id="path18"
       d="m 373.8,67.9 -3.8,-15 h -19.4 l -3.9,15 h -14 L 351.6,0 h 18.7 l 18.4,67.9 z M 360,13.1 353.3,42.6 H 367 Z"
       class="st0" /><path
       style="fill:#ffffff"
       id="path20"
       d="M 427.3,67.9 408.7,18.3 V 67.9 H 395.5 V 0 h 19.1 l 18.1,47 V 0 H 446 v 67.9 z"
       class="st0" /><path
       style="fill:#ffffff"
       id="path22"
       d="m 20,115.7 v 17.4 h 20 v 10.4 H 20 v 29.6 H 5.7 V 105.2 H 41 v 10.4 H 20 Z"
       class="st0" /><path
       style="fill:#ffffff"
       id="path24"
       d="m 81.6,173.1 -3.8,-15 H 58.5 l -3.9,15 h -14 l 18.8,-67.9 h 18.7 l 18.4,67.9 z m -13.7,-54.8 -6.7,29.5 h 13.7 z"
       class="st0" /><path
       style="fill:#ffffff"
       id="path26"
       d="m 121.5,174.3 c -12.4,0 -20.6,-5.2 -20.6,-17.9 v -4.3 h 14.4 v 1.8 c 0,7.1 2.3,10.2 7.7,10.2 4.8,0 7.5,-2.7 7.5,-7.5 0,-3.7 -1.5,-6 -5.3,-8.3 l -7.9,-4.8 C 106.6,137 102,133.3 101.8,122.7 c -0.3,-13.6 10.2,-18.6 22.4,-18.6 13.3,0 19.7,5.6 19.7,17.3 v 3.1 H 130 v -1.7 c 0,-5.7 -2.4,-8.7 -6.9,-8.7 -4.1,0 -6.9,3 -6.9,7.5 0,3 1.4,5.5 4.6,7.4 l 13.4,8.6 c 7.1,4.5 10.4,8.4 10.4,17.2 0.2,14.8 -9.7,19.5 -23.1,19.5 z"
       class="st0" /><path
       style="fill:#ffffff"
       id="path28"
       d="m 183.6,173.1 v -29.9 h -16.1 v 29.9 h -14.3 v -67.9 h 14.3 v 26.9 h 16.1 v -26.9 h 14.3 v 67.9 z"
       class="st0" /><path
       style="fill:#ffffff"
       id="path30"
       d="m 208.5,173.1 v -67.9 h 14.2 v 67.9 z"
       class="st0" /><path
       style="fill:#ffffff"
       id="path32"
       d="m 255.3,174.3 c -22.1,0 -23.2,-16.7 -23.2,-36.1 0,-18.8 1.8,-34.8 23.4,-34.8 23,0 23.7,15 23.7,35.3 0,20.1 -0.5,35.6 -23.9,35.6 z m 0.4,-60.7 c -9,0 -9.1,8.6 -9.1,27 0,15.2 0.8,23.7 8.9,23.7 9.1,0 9.2,-8.7 9.2,-26.6 0,-14.5 0.3,-24.1 -9,-24.1 z"
       class="st0" /><path
       style="fill:#ffffff"
       id="path34"
       d="m 320.5,173.1 -18.6,-49.6 v 49.6 h -13.2 v -67.9 h 19.1 l 18.1,47 v -47 h 13.2 v 67.9 z"
       class="st0" /><path
       style="fill:#ffffff"
       id="path36"
       d="M 68.7,278.4 H 53 L 42.3,228.8 30.5,278.4 H 15 L 0,210.5 h 14.6 l 8.9,47.7 10.8,-47.7 H 51 l 10.2,47.7 8.6,-47.7 h 13.9 z"
       class="st0" /><path
       style="fill:#ffffff"
       id="path38"
       d="m 90.3,278.4 v -67.9 h 37 v 10.4 h -22.8 v 16.7 h 21.1 V 248 h -21.1 v 19.6 h 23.6 v 10.6 H 90.3 Z"
       class="st0" /><path
       style="fill:#ffffff"
       id="path40"
       d="m 135.9,278.4 v -67.9 h 37 v 10.4 h -22.8 v 16.7 h 21.1 V 248 h -21.1 v 19.6 h 23.6 v 10.6 h -37.8 z"
       class="st0" /><path
       style="fill:#ffffff"
       id="path42"
       d="M 211.9,278.4 195.5,244 v 34.3 h -14.3 v -67.9 h 14.3 V 239 l 16.7,-28.6 h 15.6 l -19,30.5 19,37.4 h -15.9 z"
       class="st0" /></g></svg>