<?xml version="1.0" encoding="utf-8"?>
<!-- Generator: Adobe Illustrator 19.0.0, SVG Export Plug-In . SVG Version: 6.00 Build 0)  -->
<svg version="1.1" id="Layer_1" xmlns="http://www.w3.org/2000/svg" xmlns:xlink="http://www.w3.org/1999/xlink" x="0px" y="0px"
	 viewBox="-160 190.3 530.3 216" style="enable-background:new -160 190.3 530.3 216;" xml:space="preserve">
<style type="text/css">
	.st0{fill:url(#SVGID_1_);}
	.st1{fill:url(#SVGID_2_);}
	.st2{enable-background:new    ;}
	.st3{fill:#FBFE00;}
</style>
<g>
	
		<linearGradient id="SVGID_1_" gradientUnits="userSpaceOnUse" x1="-55.9537" y1="272.8458" x2="-47.3544" y2="332.7427" gradientTransform="matrix(1 0 0 -1 0 597.84)">
		<stop  offset="0" style="stop-color:#FCFF00"/>
		<stop  offset="0.5" style="stop-color:#E9E400"/>
		<stop  offset="1" style="stop-color:#FFCA00"/>
	</linearGradient>
	<path class="st0" d="M-43.2,330.1c-5.5,0-10.6-1.4-15.2-3.8c-8.6-4.6-14.9-13-16.6-22.9c-0.4-1.6-0.6-3.3-0.6-5.1
		c0-0.9,0.1-1.7,0.1-2.6c1.3-11.8,11.3-21,23.4-21c13,0,23.6,10.6,23.6,23.6c0,2.4-0.4,4.7-1,6.9c1.3-3.5,2-7.3,2-11.3
		c0-12.2-6.7-22.8-16.7-28.4c-4.7-2.6-10-4.1-15.8-4.1c-7.4,0-14.2,2.5-19.7,6.7c-6.4,5.8-10.9,13.7-12.6,22.6
		c-0.5,2.5-0.7,5-0.7,7.6c0,22.6,18.3,40.9,40.9,40.9c20.7,0,37.8-15.4,40.5-35.3C-14.3,318.8-27.5,330.1-43.2,330.1z"/>
	
		<linearGradient id="SVGID_2_" gradientUnits="userSpaceOnUse" x1="-45.7701" y1="326.3854" x2="-42.8049" y2="246.0293" gradientTransform="matrix(1 0 0 -1 0 597.84)">
		<stop  offset="0" style="stop-color:#FCFF00"/>
		<stop  offset="0.5" style="stop-color:#E9E400"/>
		<stop  offset="1" style="stop-color:#FFCA00"/>
	</linearGradient>
	<path class="st1" d="M-12.4,288.3c-4.5-17.7-20.5-30.9-39.6-30.9c-10.6,0-20.3,4.1-27.6,10.7c5.5-4.2,12.3-6.7,19.7-6.7
		c5.7,0,11.1,1.5,15.8,4.1c10,5.5,16.7,16.2,16.7,28.4c0,4-0.7,7.8-2,11.3c-1,3.2-2.6,6.1-4.8,8.6c-4.3,5-10.7,8.1-17.8,8.1
		c-11.3,0-20.7-7.9-23-18.5c1.7,9.9,8,18.3,16.6,22.9c4.5,2.4,9.7,3.8,15.2,3.8c15.8,0,28.9-11.3,31.7-26.3c0.2-1.8,0.4-3.7,0.4-5.5
		C-11.1,294.8-11.6,291.5-12.4,288.3z"/>
</g>
<g class="st2">
	<path class="st3" d="M72.8,333.7c0,1.5-0.7,2.7-2.1,3.7c-1.4,1-3.1,1.5-5.2,1.5c-0.2,0-0.7,0-1.5-0.1s-1.3-0.1-1.6-0.1
		c0,0.1-0.5,0.2-1.5,0.4s-1.6,0.2-1.8,0.2c0.2-0.1,1.3-0.3,3.1-0.6c-1,0.2-1.7,0.2-2.2,0.2c-0.9,0-1.7-0.1-2.5-0.2
		c-0.8-0.2-1.6-0.5-2.4-1c-0.8-0.5-1.5-0.9-2-1.2c-0.5-0.3-1.2-0.9-2-1.7c-0.8-0.9-1.3-1.4-1.6-1.7c-0.3-0.3-0.9-1-1.8-2
		c-0.9-1.1-1.4-1.7-1.6-2c-5-5.5-8.5-9.9-10.7-13.1c-1.3-1.9-2.4-2.8-3.4-2.8c-0.7,0-1.8,0.8-3.2,2.4c-1.4,1.8-3.7,4.6-6.9,8.4
		c-3.2,3.8-5.6,6.7-7.3,8.8c-1.5,1.9-3.6,3.4-6.4,4.5c-2.8,1.1-5.6,1.7-8.4,1.7c-2.4,0-4.5-0.6-6.3-1.7c-1.9-1.1-2.8-2.6-2.8-4.3
		c0-1.1,0.7-2.6,2-4.3c2.6-3.3,6.5-8.1,11.8-14.5c5.3-6.4,9.2-11.3,11.7-14.5c0.3-0.4,0.5-1,0.4-1.8c0-0.8-0.2-1.4-0.5-1.8
		c-1.1-1.3-3.3-3.9-6.8-7.7c-3.5-3.8-6.6-7.3-9.3-10.5c-2.7-3.2-4.3-5.3-4.7-6.3c-1-2.3-1.5-3.9-1.5-4.8c0-2.5,1.9-4.6,5.7-6.1
		c4.2-1.5,7-2.2,8.4-2.2c0.7,0,1.2,0.1,1.7,0.2c0.5,0.1,1,0.4,1.6,0.8c0.6,0.4,1.1,0.8,1.5,1.2c0.4,0.4,0.9,1,1.6,1.8
		c0.7,0.9,1.2,1.6,1.7,2.2c0.5,0.6,1.2,1.6,2.1,2.9c0.9,1.3,1.8,2.5,2.5,3.5c3.3,4.5,6.5,8.2,9.8,11.1c0.4,0.2,0.8,0.4,1.1,0.4
		c0.4,0,0.9-0.2,1.4-0.5c0.5-0.3,1-0.6,1.3-0.9c0.3-0.3,0.8-0.8,1.4-1.4c0.6-0.7,1-1.1,1.2-1.2c1.1-1.1,3.6-3.7,7.5-7.7
		c3.9-4,6.9-7,9.1-8.9c0.1-0.1,0.6-0.5,1.6-1.4c1-0.9,1.8-1.4,2.5-1.7c0.7-0.3,1.5-0.4,2.4-0.4c1.8,0,3.9,0.9,6.5,2.8
		c0.7,0.3,1.5,1,2.4,2.1c0.9,1.1,1.3,2.3,1.3,3.6c0,1.1-0.5,2.4-1.6,3.7c-10.2,12.2-16.8,20.3-19.8,24.4c-0.5,0.6-0.7,1.4-0.7,2.6
		c0,2,0.4,3.5,1.2,4.5c2.7,3.5,6.6,8.4,11.7,14.6c5.1,6.2,8.6,10.5,10.5,12.9C72.3,331.1,72.8,332.4,72.8,333.7z"/>
	<path class="st3" d="M123.7,269.1c3-3.5,6.3-5.2,9.8-5.2c4.2,0,7.2,2.3,8.9,7c1.4,3.4,2.7,7.1,4,10.9c1.3,3.9,2.7,8.2,4.3,13.1
		c1.5,4.8,2.7,8.5,3.5,11c1.4-2.6,2.7-5.7,4.1-9.2c1.3-3.5,2.4-6.5,3.1-9c0.7-2.5,1.7-5.9,3-10.3s2.1-7.4,2.6-9.2
		c0.7-2.3,2.2-4.2,4.6-5.6c2.4-1.5,5.1-2.2,8.1-2.2c1.8,0,3.7,0.3,5.6,1c2.9,1.1,4.4,2.8,4.4,5.2c0,1.5-0.6,3.8-1.7,6.7
		c-1.5,4.4-3.7,10.7-6.5,18.9c-2.8,8.2-5.4,15.6-7.8,22.3c-2.4,6.6-4.7,12.9-7.1,18.7c-1.5,3.9-4.5,5.9-9,5.9
		c-1.5,0-3.1-0.2-4.9-0.6c-1.6-0.4-3.3-1.3-4.9-2.7c-1.6-1.4-2.7-2.8-3.3-4.4c-4.2-10.3-8-21.9-11.4-34.7c-1.5,2.5-2.9,5.4-4,8.5
		c-1.1,3.1-2.2,6.8-3.4,10.9c-1.1,4.2-2,7.2-2.7,9c-0.1,0.3-0.3,1-0.5,1.9s-0.5,1.6-0.6,1.9c-0.1,0.3-0.3,0.9-0.6,1.7
		c-0.3,0.8-0.5,1.4-0.7,1.6c-0.2,0.3-0.5,0.8-0.8,1.4c-0.3,0.7-0.6,1.1-0.9,1.4s-0.7,0.7-1.2,1.2s-1,0.9-1.5,1.1s-1,0.5-1.6,0.7
		c-0.6,0.2-1.3,0.4-2,0.6c-1.1,0.2-2.1,0.4-3.1,0.4c-6.3,0-10.9-4.4-13.5-13.2c-2-6.4-5.4-16-10.2-28.6
		c-4.8-12.7-8.2-22.3-10.2-28.9V268c0-1,0.5-2.2,1.4-3.6c0.9-1.4,1.9-2.4,2.7-2.9c2-1.1,4.1-1.6,6.2-1.6c3.1,0,5.9,1.1,8.4,3.3
		c2.5,2.2,4.1,5,4.9,8.4c0.8,3.6,1.9,7.3,3.2,11.2c1.3,3.9,2.8,8.3,4.6,13.2c1.8,4.9,3.1,8.6,3.9,11.1c0.6-1.8,1.5-5.6,2.8-11.4
		c1.3-5.8,2.7-11.1,4.3-15.9C119.8,275.1,121.6,271.5,123.7,269.1z"/>
</g>
<g class="st2">
	<path class="st3" d="M219.6,305c-1.1,0-1.6,0.6-1.6,1.8c0,1.4,0.5,3,1.6,4.9c4.5,7,10.9,10.5,19.2,10.5c2.4,0,4.8-0.3,7.1-0.9
		c2.3-0.6,4.8-1.4,7.6-2.4c2.7-1,4.9-1.7,6.4-2.1c1.2-0.3,2.5-0.5,3.9-0.5c3.7,0,6.4,1.8,8.1,5.5c0.6,1.2,0.9,2.4,0.9,3.7
		c0,3.1-1.8,5.8-5.5,8.1c-7.7,5-16.5,7.4-26.2,7.4c-3,0-6.1-0.2-9.2-0.7c-15.8-2.4-26.6-10.5-32.3-24.4c-2.1-5.4-3.2-10.6-3.2-15.6
		c0-10.9,3.9-20.3,11.8-28.2c7.9-7.9,18.4-11.8,31.5-11.8c12.1,0,22.2,4.6,30.3,13.8c2.3,2.7,4.4,6.8,6.2,12.5
		c0.8,2,1.2,4.9,1.2,8.5c0,0.2,0,0.4-0.1,0.7c0,0.3-0.1,0.5-0.1,0.6c0,6.8-8.9,10.1-26.6,10.1c-4.3,0-10-0.2-17.2-0.7
		c-7.1-0.5-11.5-0.7-13.2-0.7H219.6z M254.7,288.9c0.2,0,0.6-0.1,1-0.2c0.4-0.1,0.7-0.2,0.7-0.2c-0.1-0.1-0.2-0.3-0.2-0.8
		c-0.1-0.4-0.2-0.7-0.4-0.8c-3.8-5.9-9.2-8.9-16.2-8.9c-4,0-7.8,0.9-11.5,2.7c-3.7,1.8-6.1,3.8-7.3,5.8c-0.2,0.2-0.4,0.9-0.6,2
		c2,0.5,6.8,0.7,14.6,0.7c3.2,0,7.1-0.1,11.8-0.2C251.4,288.9,254.1,288.9,254.7,288.9z"/>
</g>
<g class="st2">
	<path class="st3" d="M309.1,238.9v93.9c0,1.6-0.9,3.2-2.7,4.6s-4.4,2.1-7.6,2.1c-3,0-5.5-0.6-7.6-1.8c-2-1.2-3.1-3.1-3.2-5.5
		c-0.7-29.1-1-56.3-1-81.5v-11.7c0-2.6,1.1-4.6,3.3-6.1s4.8-2.2,7.7-2.2c3,0,5.6,0.7,7.8,2.2S309.1,236.3,309.1,238.9z"/>
</g>
</svg>
