<?xml version="1.0" encoding="UTF-8" standalone="no"?>
<svg
   xmlns="http://www.w3.org/2000/svg"
   height="116.7"
   width="199.39999"
   xml:space="preserve"
   viewBox="0 0 199.39999 116.7"
   y="0px"
   x="0px"
   id="Слой_1"
   version="1.1"><metadata
     id="metadata45"></metadata><defs
     id="defs43" /><style
     id="style2"
     type="text/css">
	.st0{fill:#19181C;}
</style><g
     style="fill:#ffffff"
     transform="translate(-153.4,-53.1)"
     id="g26"><path
       style="fill:#ffffff"
       id="path4"
       d="M 349.4,147.6 H 156.7 c -1.8,0 -3.3,-1.5 -3.3,-3.3 V 56.4 c 0,-1.8 1.5,-3.3 3.3,-3.3 h 192.8 c 1.8,0 3.3,1.5 3.3,3.3 v 87.9 c -0.1,1.9 -1.5,3.3 -3.4,3.3 z M 156.7,54.1 c -1.3,0 -2.3,1 -2.3,2.3 v 87.9 c 0,1.3 1,2.3 2.3,2.3 h 192.8 c 1.3,0 2.3,-1 2.3,-2.3 V 56.4 c 0,-1.3 -1,-2.3 -2.3,-2.3 z"
       class="st0" /><g
       style="fill:#ffffff"
       id="g24"><path
         style="fill:#ffffff"
         id="path6"
         d="m 281.5,102 c -0.1,0.2 -0.3,0.4 -0.4,0.6 2.9,0 5.9,0 8.9,0 -0.2,-0.1 -0.3,-0.3 -0.4,-0.6 -0.2,-0.5 -0.3,-1.7 -0.3,-3.5 V 95 c -3,2.1 -5.9,4.5 -7.8,7 z" /><path
         style="fill:#ffffff"
         id="path8"
         d="m 240.2,81.3 3.4,23.2 c 2.7,-0.3 5.4,-0.5 8.1,-0.8 l 3.1,-23.1 v 22.9 c 2.5,-0.2 5,-0.3 7.6,-0.5 0.1,-0.5 0.2,-1 0.2,-1.5 0,-0.7 -0.1,-1.4 -0.2,-2.1 -0.8,-3.6 -4,-9.1 -5,-11.6 -0.9,-2.4 1.7,-2.7 2.5,-1.7 0.8,1.1 3,3.8 3,3.8 0,0 0.9,1.2 1.5,2 V 67 H 250.2 L 247.7,86.6 246.1,76 c -0.5,-3.4 -0.9,-6.4 -1.3,-8.9 h -14.1 v 39.1 c 3.2,-0.5 6.3,-0.9 9.5,-1.2 z" /><path
         style="fill:#ffffff"
         id="path10"
         d="m 289,90.5 c 0,0 0.1,-0.1 0.2,-0.1 V 67 h -10.9 v 24.8 c 0,1.8 0,3.4 0,4.7 3.2,-1.4 7,-3.7 10.7,-6 z" /><path
         style="fill:#ffffff"
         id="path12"
         d="m 316.9,101.4 h 3.9 l 0.2,2.9 c 3.6,0.4 7.3,0.7 11,1.2 L 326.3,67 h -15.8 l -4.8,36.1 c 3.6,0.2 7.3,0.5 10.9,0.8 z m 1.9,-25 1.4,17.6 h -2.8 z" /><path
         style="fill:#ffffff"
         id="path14"
         d="m 295.8,89.8 c -0.8,0.7 -2.4,2 -3.5,2.8 v 5.3 c 0,2.1 -0.1,3.4 -0.3,4 -0.1,0.3 -0.3,0.5 -0.6,0.7 3.7,0.1 7.4,0.2 11.1,0.4 0.1,-0.4 0.3,-0.8 0.3,-1.2 0.2,-1.3 0.3,-3.5 0.3,-6.7 V 67 h -10.9 v 21.4 c 0.6,-0.3 1.2,-0.7 1.8,-1.1 2.7,-1.5 3.7,1.2 1.8,2.5 z" /><path
         style="fill:#ffffff"
         id="path16"
         d="m 185,101.4 h 6.7 v -8 H 185 v -18 h 7.6 V 67 h -18.5 v 52.4 c 3.6,-1.2 7.3,-2.3 10.9,-3.4 z" /><path
         style="fill:#ffffff"
         id="path18"
         d="m 206.1,67 h -10.9 v 46.2 c 3.6,-0.9 7.3,-1.8 11,-2.6 z" /><path
         style="fill:#ffffff"
         id="path20"
         d="m 228,106.6 v -6 h -6.6 V 67 h -10.9 l 0.2,42.6 c 5.7,-1.1 11.5,-2.1 17.3,-3 z" /><path
         style="fill:#ffffff"
         id="path22"
         d="m 352.2,109.9 c -25.1,-4.3 -49.7,-6.3 -73.6,-6 0.4,-1 1,-1.9 1.8,-2.9 3.7,-4.7 10.5,-8.9 14.6,-12.3 -8.5,5 -17.6,11.4 -22.6,10.8 -3.4,-0.4 -5.9,-2.6 -8.5,-5.8 -1.6,-1.9 -3.1,-4.2 -5.1,-6.6 1.8,3.4 4.2,7.9 5.1,11.9 0.4,1.9 0.3,3.6 -0.2,5.3 -38.9,2 -75.8,10.1 -109.8,24 v 0.2 c 36.4,-11.6 72.3,-18.2 107.2,-19.6 -3.7,4.4 -9.3,8.2 -13.1,11.6 5.2,-3.4 11.4,-7 16.2,-8.6 4.4,-1.5 6.7,-0.6 10.1,2.4 6.6,5.9 12.5,16.7 18.7,24 -5.3,-9.9 -12.5,-19.7 -14.5,-27.2 -0.2,-0.9 -0.4,-1.7 -0.5,-2.5 25.5,0.2 50.4,3.4 74.4,9.5 v -8.2 z" /></g></g><g
     style="fill:#ffffff"
     transform="translate(-153.4,-53.1)"
     id="g38"><path
       style="fill:#ffffff"
       id="path28"
       d="m 178.9,165.2 h 3.3 v 2 c -0.6,0.4 -1.5,0.8 -2.6,0.8 -2.2,0 -3.7,-1.5 -3.7,-3.9 0,-2.2 1.5,-3.9 3.5,-3.9 1.4,0 2.2,0.5 2.8,1 l 0.5,0.4 1.3,-1.5 -0.5,-0.4 c -1.2,-1 -2.4,-1.4 -4,-1.4 -3.4,0 -5.5,2.9 -5.5,5.7 0,3.4 2.3,5.7 5.6,5.7 1.6,0 3.1,-0.6 4.3,-1.6 l 0.2,-0.2 v -4.7 h -5.2 z" /><path
       style="fill:#ffffff"
       id="path30"
       d="m 220.7,162 c 0,-0.9 -0.3,-1.7 -0.9,-2.3 -0.7,-0.7 -1.9,-1.2 -3.2,-1.2 h -4.8 v 11.1 h 1.9 v -4.1 h 2.4 l 3.2,4.1 h 2.5 l -3.4,-4.5 c 1.4,-0.4 2.3,-1.6 2.3,-3.1 z m -6.9,1.7 v -3.3 h 2.8 c 0.7,0 2.2,0.2 2.2,1.6 0,1.3 -1.2,1.7 -2.3,1.7 z" /><path
       style="fill:#ffffff"
       id="path32"
       d="m 253.4,158.4 c -3.1,0 -5.6,2.5 -5.6,5.7 0,3.3 2.4,5.7 5.6,5.7 3.1,0 5.6,-2.5 5.6,-5.7 0,-3.3 -2.4,-5.7 -5.6,-5.7 z m 0,9.6 c -2.1,0 -3.6,-1.7 -3.6,-3.9 0,-2.2 1.6,-3.9 3.6,-3.9 2.1,0 3.6,1.7 3.6,3.9 0.1,2.2 -1.5,3.9 -3.6,3.9 z" /><path
       style="fill:#ffffff"
       id="path34"
       d="m 293.8,164.9 c 0,2 -0.9,3 -2.7,3 -1.8,0 -2.8,-1.1 -2.8,-3.1 v -6.3 h -1.9 v 6.4 c 0,3 1.8,4.9 4.7,4.9 2.9,0 4.7,-1.9 4.7,-5 v -6.3 h -1.9 v 6.4 z" /><path
       style="fill:#ffffff"
       id="path36"
       d="m 327.7,158.5 h -4.2 v 11.1 h 1.9 V 166 h 2.1 c 2.6,0 4.5,-1.5 4.5,-3.8 0,-2.2 -1.7,-3.7 -4.3,-3.7 z m -0.1,5.6 h -2.1 v -3.7 h 2.2 c 0.9,0 2.4,0.2 2.4,1.8 0,1.4 -1.3,1.9 -2.5,1.9 z" /></g></svg>